ply
format ascii 1.0
comment Created by FreeCAD-Render
comment 'Unnamed#Box'
element vertex 24
property float x
property float y
property float z
property float nx
property float ny
property float nz
element face 12
property list uchar int vertex_indices
end_header
0.00000 0.00000 0.00000 -1.00000 0.00000 0.00000 
0.00000 0.00000 0.00000 0.00000 -1.00000 0.00000 
0.00000 0.00000 0.00000 0.00000 0.00000 -1.00000 
0.00000 0.00000 0.0100000 -1.00000 0.00000 0.00000 
0.00000 0.00000 0.0100000 0.00000 -1.00000 0.00000 
0.00000 0.00000 0.0100000 0.00000 0.00000 1.00000 
0.00000 0.0100000 0.00000 -1.00000 0.00000 0.00000 
0.00000 0.0100000 0.00000 0.00000 1.00000 0.00000 
0.00000 0.0100000 0.00000 0.00000 0.00000 -1.00000 
0.00000 0.0100000 0.0100000 -1.00000 0.00000 0.00000 
0.00000 0.0100000 0.0100000 0.00000 1.00000 0.00000 
0.00000 0.0100000 0.0100000 0.00000 0.00000 1.00000 
0.0100000 0.00000 0.0100000 1.00000 0.00000 0.00000 
0.0100000 0.00000 0.0100000 0.00000 -1.00000 0.00000 
0.0100000 0.00000 0.0100000 0.00000 0.00000 1.00000 
0.0100000 0.00000 0.00000 1.00000 0.00000 0.00000 
0.0100000 0.00000 0.00000 0.00000 -1.00000 0.00000 
0.0100000 0.00000 0.00000 0.00000 0.00000 -1.00000 
0.0100000 0.0100000 0.00000 1.00000 0.00000 0.00000 
0.0100000 0.0100000 0.00000 0.00000 1.00000 0.00000 
0.0100000 0.0100000 0.00000 0.00000 0.00000 -1.00000 
0.0100000 0.0100000 0.0100000 1.00000 0.00000 0.00000 
0.0100000 0.0100000 0.0100000 0.00000 1.00000 0.00000 
0.0100000 0.0100000 0.0100000 0.00000 0.00000 1.00000 
3 0 3 6
3 6 3 9
3 12 15 18
3 12 18 21
3 16 13 1
3 1 13 4
3 22 19 7
3 22 7 10
3 8 20 2
3 2 20 17
3 23 11 5
3 23 5 14
